HIERARCHY
ROOT hip
{
	OFFSET 0.000000 0.000000 0.000000 
	CHANNELS 6 Xposition Yposition Zposition Xrotation Zrotation Yrotation
	JOINT abdomen
	{
		OFFSET 0.000000 3.402643 0.000000 
		CHANNELS 3 Xrotation Zrotation Yrotation
		JOINT chest
		{
			OFFSET 0.000000 8.438565 -0.680529 
			CHANNELS 3 Xrotation Zrotation Yrotation
			JOINT neck
			{
				OFFSET 0.000000 10.207942 -0.272212 
				CHANNELS 3 Xrotation Zrotation Yrotation
				JOINT head
				{
					OFFSET 0.000000 3.130431 0.000000 
					CHANNELS 3 Xrotation Zrotation Yrotation
					End Site
					{
						OFFSET 0.000000 3.130435 0.000000 
					}
				}
			}
			JOINT lCollar
			{
				OFFSET 3.470700 6.669187 -0.816635 
				CHANNELS 3 Yrotation Zrotation Xrotation
				JOINT lShldr
				{
					OFFSET 3.198488 0.000000 0.000000 
					CHANNELS 3 Zrotation Yrotation Xrotation
					JOINT lForeArm
					{
						OFFSET 10.139888 0.000000 0.000000 
						CHANNELS 3 Yrotation Zrotation Xrotation
						JOINT lHand
						{
							OFFSET 8.370511 0.000000 0.000000 
							CHANNELS 3 Zrotation Yrotation Xrotation
							End Site
							{
								OFFSET 4.083176 0.000000 0.000000 
							}
						}
					}
				}
			}
			JOINT rCollar
			{
				OFFSET -3.470700 6.669187 -0.816635 
				CHANNELS 3 Yrotation Zrotation Xrotation
				JOINT rShldr
				{
					OFFSET -3.198488 0.000000 0.000000 
					CHANNELS 3 Zrotation Yrotation Xrotation
					JOINT rForeArm
					{
						OFFSET -10.139888 0.000000 0.000000 
						CHANNELS 3 Yrotation Zrotation Xrotation
						JOINT rHand
						{
							OFFSET -8.370511 0.000000 0.000000 
							CHANNELS 3 Zrotation Yrotation Xrotation
							End Site
							{
								OFFSET -4.083176 0.000000 0.000000 
							}
						}
					}
				}
			}
		}
	}
	JOINT lThigh
	{
		OFFSET 5.308129 -1.633274 1.361059 
		CHANNELS 3 Xrotation Zrotation Yrotation
		JOINT lShin
		{
			OFFSET -2.041588 -20.007561 0.000000 
			CHANNELS 3 Xrotation Zrotation Yrotation
			JOINT lFoot
			{
				OFFSET 0.000000 -19.190928 -1.224953 
				CHANNELS 3 Xrotation Yrotation Zrotation
				End Site
				{
					OFFSET 0.000000 -2.449906 4.627600 
				}
			}
		}
	}
	JOINT rThigh
	{
		OFFSET -5.308129 -1.633274 1.361059 
		CHANNELS 3 Xrotation Zrotation Yrotation
		JOINT rShin
		{
			OFFSET 2.041588 -20.007561 0.000000 
			CHANNELS 3 Xrotation Zrotation Yrotation
			JOINT rFoot
			{
				OFFSET 0.000000 -19.190928 -1.224953 
				CHANNELS 3 Xrotation Yrotation Zrotation
				End Site
				{
					OFFSET 0.000000 -2.449906 4.627600 
				}
			}
		}
	}
}
MOTION
Frames: 8
Frame Time: 0.033333
-1.473312 51.835999 -2.963597 1.276960 0.858793 -2.109577 0.000000 0.000000 0.000000 -3.624851 0.224468 2.031273 4.192991 0.878604 1.504179 6.386829 1.132771 -0.488186 0.389016 9.943874 -2.647494 -17.278374 -11.058842 -12.925567 -11.298044 -3.922166 23.380846 5.945364 -6.933341 -3.885443 2.970462 -4.392525 -2.698492 8.951920 11.439247 -12.868855 0.025027 3.718141 24.312286 -4.112662 1.152950 -3.606514 -0.624787 6.549266 4.043803 3.917203 0.119557 16.999949 -1.731105 0.131320 -5.430929 0.770501 -13.159907 -7.700289 -1.484127 2.908005 -5.986716 3.257294 0.273933 9.381668 
-0.855409 51.882065 -3.008991 1.695455 0.839193 -2.256047 0.000000 0.000000 0.000000 -3.697084 0.361062 2.197345 4.595984 0.946918 1.553006 5.982821 1.162034 -0.654360 0.392608 10.452147 -2.702510 -17.427668 -9.982121 -13.207077 -7.558863 -3.870153 23.029819 5.819089 -6.961326 -3.871941 3.033777 -5.182091 -2.779959 9.842062 7.700064 -13.139228 -0.002117 3.259354 23.158419 -3.458454 0.705140 -3.573972 -0.185959 6.187155 4.368669 2.278937 -0.668598 17.076981 -1.288581 0.074800 -4.659083 0.408793 -13.627259 -7.607787 -1.923639 2.595822 -6.043833 4.232656 0.355151 10.158859 
-0.233423 51.934677 -3.039229 2.072543 0.741694 -2.089921 0.000000 0.000000 0.000000 -3.761744 0.517280 1.943457 4.799799 1.015332 1.377256 6.172275 0.947219 -0.566329 0.142805 10.757343 -2.754132 -17.456049 -8.488433 -13.523671 -4.317576 -3.815449 21.939617 5.733597 -7.172627 -3.871763 2.784665 -5.759806 -2.841501 10.665795 4.678800 -13.443400 -0.024831 2.906725 21.978621 -2.747105 0.280383 -3.542782 -0.419863 5.739959 4.394801 1.834311 -1.170335 16.909811 -1.357728 0.045672 -3.727430 -0.069347 -13.947498 -7.465895 -1.907584 2.258422 -6.657296 4.887645 0.399554 10.724792 
0.312524 52.004398 -3.052758 2.175783 0.429528 -1.562529 0.000000 0.000000 0.000000 -3.633269 0.712635 1.533327 5.091515 1.269320 1.045314 6.534821 0.869102 -0.537048 -0.242683 11.350812 -2.640956 -17.833689 -6.869924 -13.837434 -2.217705 -3.653381 20.992857 5.944579 -7.247035 -3.896119 2.246526 -5.944435 -2.755331 11.354046 1.974592 -13.014012 -0.026727 2.810665 20.246794 -2.671271 -0.155650 -3.541534 0.204670 5.545662 4.555777 0.175211 -1.609512 16.323582 -0.775766 0.032535 -2.866982 -0.166474 -13.767440 -7.319944 -1.996787 1.899605 -8.497099 5.960401 0.535494 10.236019 
0.746329 52.071583 -3.081834 2.130704 -0.146473 -0.703148 0.000000 0.000000 0.000000 -3.449908 1.113153 0.869356 5.570825 1.386646 0.586239 6.490245 0.507798 -0.439436 -0.860829 11.842817 -2.424305 -18.522728 -5.256904 -14.850462 -0.693758 -3.150276 20.608391 5.923110 -7.365410 -3.904821 1.548098 -6.003146 -2.580748 11.906076 -0.350498 -12.626959 -0.055929 2.621256 20.136538 -2.663235 0.031003 -3.540400 0.262963 5.678620 4.770310 -0.185285 -1.882004 15.360004 -0.728377 0.010428 -2.142244 -0.166914 -13.012996 -7.052307 -1.655985 1.422551 -11.981446 6.646154 0.519329 9.378142 
1.048370 52.121655 -3.102163 1.992411 -0.654297 -0.019642 0.000000 0.000000 0.000000 -3.222686 1.328089 0.420035 6.068524 1.591792 0.146699 6.534596 -0.263668 -0.302776 -1.378930 12.345339 -2.188606 -19.292334 -3.321219 -14.887579 -0.591726 -2.962619 19.424282 5.796725 -7.393438 -3.890354 1.044125 -5.965892 -2.365657 12.426720 -2.613073 -12.499825 -0.057763 2.355750 19.018702 -2.006980 0.180185 -3.514263 0.360501 5.952023 5.072757 -0.362232 -2.166336 14.612958 -0.671726 0.006534 -1.714183 -0.391142 -12.081324 -6.873139 -0.203353 1.470788 -13.743280 5.671498 0.438515 8.822737 
1.215052 52.144161 -3.082260 1.684899 -1.113272 0.234331 0.000000 0.000000 0.000000 -2.868830 1.328123 0.097856 6.402180 1.835933 -0.126888 6.562500 -0.898438 0.000000 -1.502483 13.091418 -1.865730 -20.121643 -1.655532 -14.715887 -0.501788 -2.849032 18.661018 5.386073 -7.596468 -3.852561 1.027523 -5.479115 -2.029577 12.636792 -4.718189 -12.821797 -0.066289 2.045956 17.354074 -1.513019 0.103183 -3.500003 0.623415 6.349508 5.490688 -0.176817 -2.420152 13.892879 -0.891949 0.023380 -1.761262 0.038400 -10.945055 -6.516330 0.771229 2.218314 -9.497981 3.217339 0.231562 8.387335 
1.309528 52.151081 -3.009020 1.103188 -1.376916 0.420035 0.000000 0.000000 0.000000 -2.385709 1.416013 -0.117152 6.770492 1.435531 -0.273352 6.486053 -0.703123 -0.136828 -1.419234 12.636940 -1.461216 -19.869263 -0.565357 -14.588282 -0.305969 -2.801465 18.563988 5.015799 -7.482895 -3.811867 0.866452 -6.100472 -1.590498 13.829789 -6.427212 -13.330173 -0.067474 1.658945 16.285646 -1.269777 -0.194946 -3.492626 1.374752 6.546690 5.811561 -0.352049 -2.545635 13.192719 -0.936972 0.055761 -1.476544 0.907110 -9.733569 -6.153347 1.327521 3.268628 -3.680159 1.288449 0.050151 7.671458 
